# xmcd
#
# Track frame offsets: 
#        150
#        14623
#        34532
#        49992
#        72824
#        93147
#        114344
#        128796
#        157449
#        174732
#        192789
#        208472
#        224388
#        237432
#        252129
#        268891
#        286165
#        307158
#        320731
#
# Disc length: 4587 seconds
#
# Revision: 0
# Processed by: cddbd v1.5.2PL0 Copyright (c) Steve Scherf et al.
# Submitted via: ExactAudioCopy v1.3
#
DISCID=2811e913
DTITLE=Rodney Crowell - The Platinum Collection
DYEAR=2006
DGENRE=Country
TTITLE0=(Now And Then, There's) A Fool Such As I
TTITLE1=Elvira
TTITLE2=Leaving Louisiana In The Broad Daylight
TTITLE3=I Ain't Living Long Like This
TTITLE4=Baby, Better Start Turnin' 'Em Down
TTITLE5=Song For The Life
TTITLE6=I Thought I Heard You Callin' My Name
TTITLE7=California Earthquake (A Whole Lotta Shakin' Goin' On)
TTITLE8=Voila, An American Dream
TTITLE9=Ashes By Now
TTITLE10=Heartbroke
TTITLE11=Queen Of Hearts
TTITLE12=Oh, What A Feeling
TTITLE13=It's Only Rock And Roll
TTITLE14=Stars On The Water
TTITLE15=She Ain't Going Nowhere
TTITLE16=Shame on the Moon
TTITLE17=Victim Or A Fool
TTITLE18='Til I Gain Control Again
EXTD=
EXTT0=
EXTT1=
EXTT2=
EXTT3=
EXTT4=
EXTT5=
EXTT6=
EXTT7=
EXTT8=
EXTT9=
EXTT10=
EXTT11=
EXTT12=
EXTT13=
EXTT14=
EXTT15=
EXTT16=
EXTT17=
EXTT18=
PLAYORDER=
